<svg version="1.0" xmlns="http://www.w3.org/2000/svg"
                                            width="150" height="150" viewBox="0 0 250.000000 80.000000"
                                            preserveAspectRatio="xMidYMid meet">

                                            <g transform="translate(0.000000,80.000000) scale(0.100000,-0.100000)"
                                            fill="#000000" stroke="none">
                                            <path d="M1265 740 c-3 -6 1 -7 9 -4 18 7 21 14 7 14 -6 0 -13 -4 -16 -10z"/>
                                            <path d="M81 723 l-24 -16 26 -14 c21 -11 30 -11 46 -1 19 11 19 14 4 30 -20
                                            22 -23 22 -52 1z"/>
                                            <path d="M1216 723 c-3 -3 -6 -17 -6 -30 0 -29 -32 -43 -101 -43 l-49 0 0 -55
                                            c0 -51 -2 -56 -27 -66 -33 -12 -51 8 -25 28 15 11 12 12 -19 13 -24 0 -39 6
                                            -43 16 -3 8 -11 12 -16 9 -6 -4 -18 -4 -27 -1 -12 5 -13 9 -3 21 17 20 4 35
                                            -31 35 l-29 0 0 -76 c0 -65 -3 -80 -22 -100 -13 -13 -33 -24 -46 -24 -15 0
                                            -21 -4 -16 -12 4 -6 -1 -17 -11 -25 -18 -12 -18 -13 1 -13 11 0 36 11 55 25
                                            l34 26 3 -91 3 -90 44 0 45 0 0 95 c0 52 3 95 8 95 4 0 38 -43 75 -95 64 -88
                                            71 -95 103 -95 l34 0 0 179 c0 156 2 180 16 185 21 8 44 -11 44 -36 0 -17 3
                                            -18 14 -9 11 10 16 9 24 -5 8 -14 10 -13 14 10 4 22 2 26 -18 26 -34 0 -40 20
                                            -7 22 99 5 100 2 38 -180 -29 -86 -56 -165 -60 -174 -6 -16 -1 -18 44 -18 49
                                            0 53 2 62 30 11 29 12 30 79 30 67 0 68 -1 79 -30 9 -28 13 -30 60 -30 l49 0
                                            -62 188 -63 187 -58 3 c-32 2 -62 -1 -68 -7 -6 -6 -18 -4 -35 7 -23 15 -23 16
                                            -6 24 11 5 0 5 -25 2 -43 -6 -44 -6 -37 19 6 25 -5 43 -18 30z m208 -241 c9
                                            -32 16 -61 16 -65 0 -4 -18 -7 -40 -7 -22 0 -40 3 -40 7 0 19 34 123 40 123 4
                                            0 15 -26 24 -58z m-364 1 c0 -25 -1 -26 -16 -11 -9 9 -13 21 -10 27 13 20 26
                                            11 26 -16z"/>
                                            <path d="M470 681 c-25 -9 -51 -24 -59 -34 -7 -10 -20 -16 -28 -13 -7 3 -60
                                            -23 -116 -59 l-102 -64 -3 90 c-1 49 -5 89 -8 89 -3 0 -25 -14 -50 -30 l-44
                                            -31 0 -179 0 -180 50 0 c28 0 50 4 50 8 0 4 26 13 57 20 52 11 57 10 70 -8 11
                                            -16 26 -20 65 -20 50 0 50 0 34 23 -39 55 -39 55 4 67 47 13 84 5 76 -15 -3
                                            -9 0 -12 10 -8 8 3 21 0 29 -7 12 -10 15 -9 15 9 0 12 -6 21 -15 21 -8 0 -15
                                            4 -15 8 0 14 23 32 42 32 15 0 18 -9 18 -65 l0 -65 44 0 44 0 4 55 c2 39 -1
                                            55 -9 55 -7 0 -13 9 -13 20 0 11 5 20 10 20 6 0 3 11 -5 24 -18 28 -7 41 34
                                            41 18 0 32 15 67 75 23 41 43 78 43 83 1 4 -21 7 -49 7 l-50 0 -36 -72 -37
                                            -73 -35 72 c-33 67 -38 72 -71 75 l-36 4 38 17 c20 10 37 19 37 22 0 7 -8 5
                                            -60 -14z m-14 -55 c20 5 24 2 24 -15 0 -12 6 -21 15 -21 23 0 18 -28 -6 -35
                                            -18 -6 -19 -9 -6 -23 17 -22 59 -94 55 -97 -27 -22 -77 -36 -113 -31 -26 4
                                            -53 2 -69 -5 -23 -11 -29 -10 -46 7 -16 17 -17 24 -8 59 8 30 23 49 59 75 42
                                            30 45 36 31 47 -16 12 -15 15 8 34 14 12 26 16 28 10 2 -6 14 -8 28 -5z m-246
                                            -226 c14 -26 5 -40 -26 -40 -18 0 -24 5 -24 23 0 41 31 52 50 17z"/>
                                            <path d="M1328 683 c7 -3 16 -2 19 1 4 3 -2 6 -13 5 -11 0 -14 -3 -6 -6z"/>
                                            <path d="M1737 468 c35 -95 66 -179 68 -186 3 -9 18 -12 42 -10 l36 3 40 108
                                            c33 89 44 107 61 107 31 1 66 34 66 64 0 29 -30 37 -31 9 0 -13 -3 -12 -10 5
                                            -5 13 -6 35 -3 48 5 21 3 24 -22 24 -28 0 -31 -4 -79 -141 -28 -78 -54 -140
                                            -60 -139 -5 1 -32 64 -59 141 l-49 139 -32 0 -32 0 64 -172z m252 93 c-15 -5
                                            -22 6 -14 19 6 9 10 9 16 -1 5 -8 4 -15 -2 -18z m-9 -20 c0 -12 -20 -25 -27
                                            -18 -7 7 6 27 18 27 5 0 9 -4 9 -9z"/>
                                            <path d="M2090 455 l0 -185 30 0 29 0 3 128 3 127 63 -82 c34 -45 62 -91 62
                                            -103 0 -24 44 -66 79 -75 35 -9 91 13 91 36 0 16 -4 17 -26 8 -15 -5 -29 -7
                                            -32 -4 -3 3 0 5 7 5 7 0 9 5 5 12 -4 7 -3 8 4 4 7 -4 12 -2 12 3 0 14 -33 14
                                            -46 1 -10 -10 -84 7 -84 20 0 11 67 31 84 24 14 -5 16 8 16 130 l0 136 -30 0
                                            -29 0 -3 -127 -3 -128 -94 128 c-74 101 -98 127 -117 127 l-24 0 0 -185z"/>
                                            <path d="M1206 562 c-13 -12 -5 -22 19 -22 14 0 25 4 25 9 0 10 -36 21 -44 13z"/>
                                            <path d="M1666 387 c3 -10 9 -15 12 -12 3 3 0 11 -7 18 -10 9 -11 8 -5 -6z"/>
                                            <path d="M1626 358 c-12 -27 -3 -60 24 -77 13 -9 21 -11 17 -4 -4 6 -3 14 2
                                            17 6 4 6 18 1 37 -12 40 -25 53 -16 17 3 -16 2 -28 -3 -28 -5 0 -11 12 -13 28
                                            -3 21 -6 24 -12 10z"/>
                                            <path d="M454 301 c-10 -10 -2 -19 20 -23 21 -4 36 7 36 25 0 4 -52 2 -56 -2z"/>
                                            </g>
</svg>